<?xml version="1.0" encoding="UTF-8" standalone="no"?>
<svg width="600" height="450" xmlns="http://www.w3.org/2000/svg">
  <!-- Vehicle -->
  <rect x="250" y="200" width="100" height="50" fill="lightgray" stroke="black" stroke-width="2"/>
  <circle cx="270" cy="250" r="10" fill="black"/>
  <circle cx="330" cy="250" r="10" fill="black"/>
  <circle cx="270" cy="200" r="10" fill="black"/>
  <circle cx="330" cy="200" r="10" fill="black"/>

  <!-- Vehicle Frame (V) -->
  <line x1="300" y1="225" x2="350" y2="225" stroke="red" stroke-width="3" marker-end="url(#arrowhead)"/>
  <line x1="300" y1="225" x2="300" y2="175" stroke="green" stroke-width="3" marker-end="url(#arrowhead)"/>
  <line x1="300" y1="225" x2="300" y2="255" stroke="blue" stroke-width="3" opacity="0.5" marker-end="url(#arrowhead)"/>
  <text x="355" y="225" font-family="Arial" font-size="14" fill="red">X_V</text>
  <text x="305" y="170" font-family="Arial" font-size="14" fill="green">Y_V</text>
  <text x="305" y="265" font-family="Arial" font-size="14" fill="blue">Z_V</text>
  <text x="290" y="220" font-family="Arial" font-size="14" font-weight="bold">V</text>

  <!-- Camera (C) -->
  <rect x="320" y="180" width="20" height="15" fill="darkblue" stroke="black" stroke-width="1"/>
  <polygon points="340,180 340,195 350,190" fill="darkblue" stroke="black" stroke-width="1"/>

  <!-- Camera Frame (C) -->
  <line x1="340" y1="187.5" x2="370" y2="187.5" stroke="blue" stroke-width="2" marker-end="url(#arrowhead)"/>
  <line x1="340" y1="187.5" x2="340" y2="157.5" stroke="red" stroke-width="2" marker-end="url(#arrowhead)"/>
  <line x1="340" y1="187.5" x2="355" y2="202.5" stroke="green" stroke-width="2" marker-end="url(#arrowhead)"/>
  <text x="375" y="190" font-family="Arial" font-size="12" fill="blue">Z_C</text>
  <text x="345" y="155" font-family="Arial" font-size="12" fill="red">X_C</text>
  <text x="360" y="207.5" font-family="Arial" font-size="12" fill="green">Y_C</text>
  <text x="330" y="185" font-family="Arial" font-size="12" font-weight="bold">C</text>

  <!-- IMU (I) -->
  <rect x="270" y="190" width="15" height="15" fill="orange" stroke="black" stroke-width="1"/>

  <!-- IMU Frame (I) -->
  <line x1="277.5" y1="197.5" x2="307.5" y2="197.5" stroke="red" stroke-width="2" marker-end="url(#arrowhead)"/>
  <line x1="277.5" y1="197.5" x2="277.5" y2="167.5" stroke="green" stroke-width="2" marker-end="url(#arrowhead)"/>
  <line x1="277.5" y1="197.5" x2="262.5" y2="212.5" stroke="blue" stroke-width="2" marker-end="url(#arrowhead)"/>
  <text x="310" y="200" font-family="Arial" font-size="12" fill="red">X_I</text>
  <text x="280" y="165" font-family="Arial" font-size="12" fill="green">Y_I</text>
  <text x="255" y="217.5" font-family="Arial" font-size="12" fill="blue">Z_I</text>
  <text x="267.5" y="195" font-family="Arial" font-size="12" font-weight="bold">I</text>

  <!-- World Frame (W) -->
  <line x1="80" y1="350" x2="130" y2="350" stroke="red" stroke-width="3" marker-end="url(#arrowhead)"/>
  <line x1="80" y1="350" x2="80" y2="300" stroke="green" stroke-width="3" marker-end="url(#arrowhead)"/>
  <line x1="80" y1="350" x2="80" y2="380" stroke="blue" stroke-width="3" opacity="0.5" marker-end="url(#arrowhead)"/>
  <text x="135" y="350" font-family="Arial" font-size="14" fill="red">X_W</text>
  <text x="85" y="295" font-family="Arial" font-size="14" fill="green">Y_W</text>
  <text x="85" y="390" font-family="Arial" font-size="14" fill="blue">Z_W</text>
  <text x="70" y="345" font-family="Arial" font-size="14" font-weight="bold">W</text>

  <!-- Transformation Lines and Labels -->
  <!-- T_W<-V -->
  <line x1="80" y1="350" x2="300" y2="225" stroke="black" stroke-width="1.5" stroke-dasharray="5,3" marker-end="url(#arrow)"/>
  <text x="180" y="280" font-family="Arial" font-size="14">T_W←V</text>

  <!-- T_V<-C -->
  <line x1="300" y1="225" x2="340" y2="187.5" stroke="black" stroke-width="1.5" stroke-dasharray="5,3" marker-end="url(#arrow)"/>
  <text x="325" y="210" font-family="Arial" font-size="14">T_V←C</text>

  <!-- T_V<-I -->
  <line x1="300" y1="225" x2="277.5" y2="197.5" stroke="black" stroke-width="1.5" stroke-dasharray="5,3" marker-end="url(#arrow)"/>
  <text x="280" y="215" font-family="Arial" font-size="14">T_V←I</text>

  <!-- Arrow Markers -->
  <defs>
    <marker id="arrow" markerWidth="10" markerHeight="10" refX="9" refY="3" orient="auto" markerUnits="strokeWidth">
      <path d="M0,0 L0,6 L9,3 z" fill="black"/>
    </marker>
    <marker id="arrowhead" viewBox="0 0 10 10" refX="5" refY="5" markerWidth="6" markerHeight="6" orient="auto-start-reverse">
      <path d="M 0 0 L 10 5 L 0 10 z" />
    </marker>
  </defs>

  <!-- Title -->
  <text x="150" y="30" font-family="Arial" font-size="18" font-weight="bold">Coordinate Frames for Multisensor Calibration</text>

  <!-- Legend -->
  <rect x="450" y="300" width="120" height="120" fill="white" stroke="black" stroke-width="1"/>
  <text x="460" y="320" font-family="Arial" font-size="14" font-weight="bold">Legend</text>

  <rect x="460" y="330" width="15" height="15" fill="lightgray" stroke="black" stroke-width="1"/>
  <text x="480" y="342" font-family="Arial" font-size="12">Vehicle</text>

  <rect x="460" y="350" width="15" height="15" fill="darkblue" stroke="black" stroke-width="1"/>
  <text x="480" y="362" font-family="Arial" font-size="12">Camera</text>

  <rect x="460" y="370" width="15" height="15" fill="orange" stroke="black" stroke-width="1"/>
  <text x="480" y="382" font-family="Arial" font-size="12">IMU</text>

  <line x1="460" y1="395" x2="475" y2="395" stroke="black" stroke-width="1.5" stroke-dasharray="5,3"/>
  <text x="480" y="400" font-family="Arial" font-size="12">Transformation</text>

  <!-- Explanation -->
  <text x="50" y="410" font-family="Arial" font-size="14">
    The diagram shows the relationship between coordinate frames (W=World, V=Vehicle, C=Camera, I=IMU)
  </text>
  <text x="50" y="430" font-family="Arial" font-size="14">
    in the multisensor calibration system. Extrinsic calibration determines the transformations (T).
  </text>
</svg>
