<?xml version="1.0" encoding="UTF-8" standalone="no"?>
<svg width="600" height="420" xmlns="http://www.w3.org/2000/svg">
  <!-- Image 1 -->
  <rect x="50" y="100" width="200" height="150" fill="#f0f0f0" stroke="black" stroke-width="2"/>
  <text x="130" y="90" font-family="Arial" font-size="14" font-weight="bold">Image 1</text>

  <!-- Image 2 -->
  <rect x="350" y="100" width="200" height="150" fill="#f0f0f0" stroke="black" stroke-width="2"/>
  <text x="430" y="90" font-family="Arial" font-size="14" font-weight="bold">Image 2</text>

  <!-- Simple scene elements in Image 1 -->
  <rect x="80" y="130" width="50" height="30" fill="#d0d0d0" stroke="black" stroke-width="1"/>
  <circle cx="180" cy="150" r="20" fill="#d0d0d0" stroke="black" stroke-width="1"/>
  <polygon points="120,200 150,180 180,200" fill="#d0d0d0" stroke="black" stroke-width="1"/>

  <!-- Simple scene elements in Image 2 (slightly moved) -->
  <rect x="370" y="140" width="50" height="30" fill="#d0d0d0" stroke="black" stroke-width="1"/>
  <circle cx="480" cy="160" r="20" fill="#d0d0d0" stroke="black" stroke-width="1"/>
  <polygon points="410,210 440,190 470,210" fill="#d0d0d0" stroke="black" stroke-width="1"/>

  <!-- Feature points in Image 1 -->
  <circle cx="80" cy="130" r="5" fill="red" stroke="black" stroke-width="1"/>
  <circle cx="130" cy="130" r="5" fill="red" stroke="black" stroke-width="1"/>
  <circle cx="130" cy="160" r="5" fill="red" stroke="black" stroke-width="1"/>
  <circle cx="80" cy="160" r="5" fill="red" stroke="black" stroke-width="1"/>
  <circle cx="180" cy="150" r="5" fill="red" stroke="black" stroke-width="1"/>
  <circle cx="180" cy="130" r="5" fill="red" stroke="black" stroke-width="1"/>
  <circle cx="180" cy="170" r="5" fill="red" stroke="black" stroke-width="1"/>
  <circle cx="120" cy="200" r="5" fill="red" stroke="black" stroke-width="1"/>
  <circle cx="150" cy="180" r="5" fill="red" stroke="black" stroke-width="1"/>
  <circle cx="180" cy="200" r="5" fill="red" stroke="black" stroke-width="1"/>

  <!-- Feature points in Image 2 -->
  <circle cx="370" cy="140" r="5" fill="blue" stroke="black" stroke-width="1"/>
  <circle cx="420" cy="140" r="5" fill="blue" stroke="black" stroke-width="1"/>
  <circle cx="420" cy="170" r="5" fill="blue" stroke="black" stroke-width="1"/>
  <circle cx="370" cy="170" r="5" fill="blue" stroke="black" stroke-width="1"/>
  <circle cx="480" cy="160" r="5" fill="blue" stroke="black" stroke-width="1"/>
  <circle cx="480" cy="140" r="5" fill="blue" stroke="black" stroke-width="1"/>
  <circle cx="480" cy="180" r="5" fill="blue" stroke="black" stroke-width="1"/>
  <circle cx="410" cy="210" r="5" fill="blue" stroke="black" stroke-width="1"/>
  <circle cx="440" cy="190" r="5" fill="blue" stroke="black" stroke-width="1"/>
  <circle cx="470" cy="210" r="5" fill="blue" stroke="black" stroke-width="1"/>

  <!-- Feature matching lines -->
  <line x1="80" y1="130" x2="370" y2="140" stroke="green" stroke-width="1.5" stroke-dasharray="5,3"/>
  <line x1="130" y1="130" x2="420" y2="140" stroke="green" stroke-width="1.5" stroke-dasharray="5,3"/>
  <line x1="130" y1="160" x2="420" y2="170" stroke="green" stroke-width="1.5" stroke-dasharray="5,3"/>
  <line x1="80" y1="160" x2="370" y2="170" stroke="green" stroke-width="1.5" stroke-dasharray="5,3"/>
  <line x1="180" y1="150" x2="480" y2="160" stroke="green" stroke-width="1.5" stroke-dasharray="5,3"/>
  <line x1="180" y1="130" x2="480" y2="140" stroke="green" stroke-width="1.5" stroke-dasharray="5,3"/>
  <line x1="180" y1="170" x2="480" y2="180" stroke="green" stroke-width="1.5" stroke-dasharray="5,3"/>
  <line x1="120" y1="200" x2="410" y2="210" stroke="green" stroke-width="1.5" stroke-dasharray="5,3"/>
  <line x1="150" y1="180" x2="440" y2="190" stroke="green" stroke-width="1.5" stroke-dasharray="5,3"/>
  <line x1="180" y1="200" x2="470" y2="210" stroke="green" stroke-width="1.5" stroke-dasharray="5,3"/>

  <!-- Feature descriptor visualization for one point -->
  <circle cx="150" cy="180" r="15" fill="none" stroke="purple" stroke-width="1"/>
  <line x1="150" y1="180" x2="160" y2="170" stroke="purple" stroke-width="1"/>
  <line x1="150" y1="180" x2="140" y2="170" stroke="purple" stroke-width="1"/>
  <line x1="150" y1="180" x2="160" y2="190" stroke="purple" stroke-width="1"/>
  <line x1="150" y1="180" x2="140" y2="190" stroke="purple" stroke-width="1"/>

  <circle cx="440" cy="190" r="15" fill="none" stroke="purple" stroke-width="1"/>
  <line x1="440" y1="190" x2="450" y2="180" stroke="purple" stroke-width="1"/>
  <line x1="440" y1="190" x2="430" y2="180" stroke="purple" stroke-width="1"/>
  <line x1="440" y1="190" x2="450" y2="200" stroke="purple" stroke-width="1"/>
  <line x1="440" y1="190" x2="430" y2="200" stroke="purple" stroke-width="1"/>

  <!-- Title -->
  <text x="150" y="50" font-family="Arial" font-size="18" font-weight="bold">Feature Detection and Matching</text>

  <!-- Explanation -->
  <text x="50" y="280" font-family="Arial" font-size="14">
    Feature detection identifies distinctive points in images (corners, blobs, etc.).
  </text>
  <text x="50" y="300" font-family="Arial" font-size="14">
    Feature descriptors capture the local appearance around each point.
  </text>
  <text x="50" y="320" font-family="Arial" font-size="14">
    Matching pairs features between images based on descriptor similarity.
  </text>
  <text x="50" y="340" font-family="Arial" font-size="14">
    These matches enable triangulation and camera pose estimation.
  </text>

  <!-- Legend -->
  <rect x="450" y="280" width="120" height="100" fill="white" stroke="black" stroke-width="1"/>
  <text x="460" y="295" font-family="Arial" font-size="12" font-weight="bold">Legend</text>

  <circle cx="470" cy="310" r="5" fill="red" stroke="black" stroke-width="1"/>
  <text x="480" y="313" font-family="Arial" font-size="12">Features in Image 1</text>

  <circle cx="470" cy="330" r="5" fill="blue" stroke="black" stroke-width="1"/>
  <text x="480" y="333" font-family="Arial" font-size="12">Features in Image 2</text>

  <line x1="460" y1="350" x2="480" y2="350" stroke="green" stroke-width="1.5" stroke-dasharray="5,3"/>
  <text x="485" y="353" font-family="Arial" font-size="12">Matches</text>

  <circle cx="470" cy="370" r="10" fill="none" stroke="purple" stroke-width="1"/>
  <text x="485" y="373" font-family="Arial" font-size="12">Descriptor</text>
</svg>
